<svg xmlns="http://www.w3.org/2000/svg" viewBox="0 0 199 57.04"><defs><style>.cls-1,.cls-2,.cls-4{fill:#fff;}.cls-2{font-size:14.38px;font-family:Montserrat-Regular, Montserrat Regular;}.cls-3{letter-spacing:-0.01em;}.cls-4{font-size:8.61px;font-family:Elephant-Regular, Elephant;}</style></defs><title>logomod</title><g id="Layer_2" data-name="Layer 2"><g id="OBJECTS"><path class="cls-1" d="M84,17.12H79.36A16.89,16.89,0,0,1,86.51,3.28a16.88,16.88,0,0,1,19-.68c5.29,3.34,7.93,8.24,8.19,14.5-.18,0-.28,0-.39,0-1.31,0-2.62,0-3.92,0-.33,0-.4-.12-.42-.42a12.29,12.29,0,0,0-5-9.51,12.11,12.11,0,0,0-7-2.48,12.47,12.47,0,0,0-12.68,9.84c-.15.71-.19,1.44-.28,2.16C84,16.86,84,17,84,17.12Z"/><path class="cls-1" d="M86.44,17.24c.66,0,1.32,0,2,0,.29,0,.4.09.41.39A7.71,7.71,0,0,0,104,19a9,9,0,0,0,.21-1.43c0-.24.09-.33.33-.33,1.33,0,2.67,0,4,0,.38,0,.36.23.35.48a12,12,0,0,1-2.77,7.3,12.06,12.06,0,0,1-8,4.48A12.39,12.39,0,0,1,84.44,20c-.18-.77-.22-1.57-.33-2.35,0-.31.07-.43.4-.42C85.15,17.25,85.8,17.24,86.44,17.24Z"/><path class="cls-1" d="M104.16,17.13H88.87a7.55,7.55,0,0,1,3.08-6.08,7.71,7.71,0,0,1,8.48-.47A7.55,7.55,0,0,1,104.16,17.13Z"/><text class="cls-2" transform="translate(55.48 53.45)"><tspan class="cls-3">M</tspan><tspan x="11.42" y="0">AKE IT EASY</tspan></text><text class="cls-4" transform="translate(75.72 39.46)">Mod64bits</text></g></g></svg>