<svg xmlns="http://www.w3.org/2000/svg" xmlns:xlink="http://www.w3.org/1999/xlink" viewBox="0 0 557.17 371.12"><defs><style>.cls-1{fill:none;}.cls-2{clip-path:url(#clip-path);}.cls-3{fill:url(#linear-gradient);}.cls-4{fill:url(#linear-gradient-2);}.cls-5{fill:url(#linear-gradient-3);}.cls-6{fill:url(#linear-gradient-4);}.cls-7{fill:url(#linear-gradient-5);}.cls-8{fill:url(#linear-gradient-6);}.cls-9{fill:url(#linear-gradient-7);}.cls-10{fill:url(#linear-gradient-8);}.cls-11{fill:url(#linear-gradient-9);}.cls-12{fill:url(#linear-gradient-10);}.cls-13{fill:url(#linear-gradient-11);}.cls-14{fill:url(#linear-gradient-12);}.cls-15{fill:url(#linear-gradient-13);}.cls-16{fill:url(#linear-gradient-14);}.cls-17{fill:url(#linear-gradient-15);}.cls-18{fill:url(#linear-gradient-16);}.cls-19,.cls-20,.cls-22,.cls-23{fill:#fff;}.cls-20{font-size:14.38px;font-family:Montserrat-Regular, Montserrat Regular;}.cls-21{letter-spacing:-0.01em;}.cls-22{font-size:14px;font-family:BerlinSansFB-Reg, Berlin Sans FB;}.cls-23{font-size:8.61px;font-family:Elephant-Regular, Elephant;}</style><clipPath id="clip-path"><polygon class="cls-1" points="278.3 8.22 145.37 8.22 145.37 363.13 278.3 363.13 411.39 363.13 411.39 8.22 278.3 8.22"/></clipPath><linearGradient id="linear-gradient" y1="185.56" x2="556.68" y2="185.56" gradientUnits="userSpaceOnUse"><stop offset="0" stop-color="#07bce5"/><stop offset="1" stop-color="#7c78d7"/></linearGradient><linearGradient id="linear-gradient-2" x1="172.69" y1="230.75" x2="556.68" y2="230.75" xlink:href="#linear-gradient"/><linearGradient id="linear-gradient-3" x1="172.69" y1="230.75" x2="557.17" y2="230.75" gradientUnits="userSpaceOnUse"><stop offset="0" stop-color="#7c78d7"/><stop offset="1" stop-color="#07bce5"/></linearGradient><linearGradient id="linear-gradient-4" x1="1.98" y1="169.21" x2="556.68" y2="169.21" xlink:href="#linear-gradient"/><linearGradient id="linear-gradient-5" y1="169.21" x2="640.65" y2="169.21" xlink:href="#linear-gradient"/><linearGradient id="linear-gradient-6" x1="376.51" y1="140.14" x2="556.68" y2="140.14" xlink:href="#linear-gradient"/><linearGradient id="linear-gradient-7" x1="172.69" y1="140.14" x2="557.17" y2="140.14" xlink:href="#linear-gradient-3"/><linearGradient id="linear-gradient-8" x1="1.98" y1="140.14" x2="640.35" y2="140.14" xlink:href="#linear-gradient-3"/><linearGradient id="linear-gradient-9" x1="1.98" y1="132.24" x2="179.68" y2="132.24" xlink:href="#linear-gradient"/><linearGradient id="linear-gradient-10" x1="1.98" y1="132.24" x2="640.35" y2="132.24" xlink:href="#linear-gradient-3"/><linearGradient id="linear-gradient-11" x1="-33.65" y1="132.24" x2="179.68" y2="132.24" xlink:href="#linear-gradient-3"/><linearGradient id="linear-gradient-12" x1="172.73" y1="311.23" x2="557.17" y2="311.23" xlink:href="#linear-gradient-3"/><linearGradient id="linear-gradient-13" x1="344.24" y1="311.23" x2="557.17" y2="311.23" xlink:href="#linear-gradient-3"/><linearGradient id="linear-gradient-14" x1="344.21" y1="280.87" x2="556.68" y2="280.87" xlink:href="#linear-gradient"/><linearGradient id="linear-gradient-15" x1="172.69" y1="280.87" x2="557.17" y2="280.87" xlink:href="#linear-gradient-3"/><linearGradient id="linear-gradient-16" x1="344.21" y1="280.87" x2="557.17" y2="280.87" xlink:href="#linear-gradient-3"/></defs><title>make</title><g id="Layer_2" data-name="Layer 2"><g id="OBJECTS"><g class="cls-2"><rect class="cls-3" width="556.68" height="371.12"/><path class="cls-4" d="M556.47,201.1l.21,50.23V199.44c-15-3.18-32.74-12.67-53.62-30.45-45.25-38.54-88.4-65.1-126.56-78.63C340.8,108.27,317,149.56,317,198.43c0,115-51.26,172.69-144.28,172.69H344.21C344.21,127.37,556.47,201.1,556.47,201.1Z"/><path class="cls-5" d="M556.47,201.1l.21,50.23V199.44c-15-3.18-32.74-12.67-53.62-30.45-45.25-38.54-88.4-65.1-126.56-78.63C340.8,108.27,317,149.56,317,198.43c0,115-51.26,172.69-144.28,172.69H344.21C344.21,127.37,556.47,201.1,556.47,201.1Z"/><path class="cls-6" d="M2,264.47v63.79s225.56,60,225.56-111.65c0-119.57,61.32-157.31,149-126.25,48.22-24.17,118.08-5.68,180.17,94.4V0h-377V90.55C179.68,243.29,68.63,265.12,2,264.47Z"/><path class="cls-7" d="M0,264.47v63.79s226.36,60,226.36-111.65C226.36,97,287.91,59.3,375.87,90.37c48.39-24.17,118.5-5.68,180.82,94.4V0H178.33V90.55C178.33,243.29,66.89,265.12,0,264.47Z"/><path class="cls-8" d="M376.51,90.37c38.16,13.53,81.31,40.09,126.56,78.63,20.87,17.78,38.58,27.26,53.62,30.45V184.77C494.59,84.69,424.72,66.2,376.51,90.37Z"/><path class="cls-9" d="M376.51,90.37c38.16,13.53,81.31,40.09,126.56,78.63,20.87,17.78,38.58,27.26,53.62,30.45V184.77C494.59,84.69,424.72,66.2,376.51,90.37Z"/><path class="cls-10" d="M376.51,90.37c38.16,13.53,81.31,40.09,126.56,78.63,20.87,17.78,38.58,27.26,53.62,30.45V184.77C494.59,84.69,424.72,66.2,376.51,90.37Z"/><path class="cls-11" d="M179.68,90.55V0H2V264.47C68.63,265.12,179.68,243.29,179.68,90.55Z"/><path class="cls-12" d="M179.68,90.55V0H2V264.47C68.63,265.12,179.68,243.29,179.68,90.55Z"/><path class="cls-13" d="M179.68,90.55V0H2V264.47C68.63,265.12,179.68,243.29,179.68,90.55Z"/><polygon class="cls-14" points="556.68 371.12 557.17 371.12 556.68 251.33 556.68 371.12"/><polygon class="cls-15" points="556.68 371.12 557.17 371.12 556.68 251.33 556.68 371.12"/><path class="cls-16" d="M556.47,201.1s-212.26-73.73-212.26,170H556.68V251.33Z"/><path class="cls-17" d="M556.47,201.1s-212.26-73.73-212.26,170H556.68V251.33Z"/><path class="cls-18" d="M556.47,201.1s-212.26-73.73-212.26,170H556.68V251.33Z"/></g><path class="cls-19" d="M265.87,125.38H261.2a17.17,17.17,0,0,1,26.16-14.52c5.29,3.34,7.93,8.24,8.19,14.5-.18,0-.28,0-.39,0-1.31,0-2.62,0-3.92,0-.33,0-.4-.12-.42-.42a12.29,12.29,0,0,0-5-9.51,12.11,12.11,0,0,0-7-2.48,12.47,12.47,0,0,0-12.68,9.84c-.15.71-.19,1.44-.28,2.16C265.89,125.12,265.88,125.24,265.87,125.38Z"/><path class="cls-19" d="M268.28,125.49c.66,0,1.32,0,2,0,.29,0,.4.09.41.39a7.71,7.71,0,0,0,15.2,1.37,9,9,0,0,0,.21-1.43c0-.24.09-.33.33-.33,1.33,0,2.67,0,4,0,.38,0,.36.23.35.48A12.42,12.42,0,0,1,280,137.75a12.39,12.39,0,0,1-13.75-9.5c-.18-.77-.22-1.57-.33-2.35,0-.31.07-.43.4-.42C267,125.5,267.64,125.49,268.28,125.49Z"/><path class="cls-19" d="M286,125.38H270.71a7.55,7.55,0,0,1,3.08-6.08,7.71,7.71,0,0,1,8.48-.47A7.55,7.55,0,0,1,286,125.38Z"/><text class="cls-20" transform="translate(237.11 165.7)"><tspan class="cls-21">M</tspan><tspan x="11.42" y="0">AKE IT EASY</tspan></text><text class="cls-22" transform="translate(187.28 253.79)">Sistema feito para sua empresa</text><text class="cls-23" transform="translate(254.6 151.95)">Mod64bits</text></g></g></svg>